# xmcd
#
# Track frame offsets: 
#        150
#        20633
#        42530
#        63048
#        88811
#        109391
#        133127
#        155372
#
# Disc length: 2427 seconds
#
# Revision: 3
# Processed by: cddbd v1.5.2PL0 Copyright (c) Steve Scherf et al.
# Submitted via: ExactAudioCopy v1.3
#
DISCID=6c097908
DTITLE=BEGIN - 一五一会
DYEAR=2003
DGENRE=JPop
TTITLE0=涙そうそう (一五一会バージョン)
TTITLE1=海の唄 (一五一会バージョン)
TTITLE2=声のおまもりください (一五一会バージョン)
TTITLE3=恋しく (一五一会バージョン)
TTITLE4=防波堤で見た景色 (一五一会バージョン)
TTITLE5=この街はなれて (一五一会バージョン)
TTITLE6=その時生まれたもの (一五一会バージョン)
TTITLE7=島人ぬ宝 (一五一会バージョン)
EXTD=
EXTT0=
EXTT1=
EXTT2=
EXTT3=
EXTT4=
EXTT5=
EXTT6=
EXTT7=
PLAYORDER=
